<?xml version="1.0" encoding="utf-8"?>
<!-- Generator: Adobe Illustrator 16.0.0, SVG Export Plug-In . SVG Version: 6.00 Build 0)  -->
<!DOCTYPE svg PUBLIC "-//W3C//DTD SVG 1.1//EN" "http://www.w3.org/Graphics/SVG/1.1/DTD/svg11.dtd">
<svg version="1.1" id="Layer_1" xmlns="http://www.w3.org/2000/svg" xmlns:xlink="http://www.w3.org/1999/xlink" x="0px" y="0px"
	 width="609.451px" height="382.68px" viewBox="0 0 609.451 382.68" enable-background="new 0 0 609.451 382.68"
	 xml:space="preserve">
<path fill="#24BDEF" d="M197.04,293.446c0,0-101.024-105.924,0.442-214.728c0,0,108.31-7.571,183.288,106.844
	c0,0,0-75.844-38.541-114.93c0,0,0.617-23.989,24.925-23.989c0,0,89.954,38.058,89.954,140.279c0,0,3.92,174.72-214.674,137.446
	c0,0,63.358,11.877,100.412-63.253c0,0-37.054-114.411-114.237-115.725c0,0-37.992,40.171,0.183,116.706
	C228.792,262.098,228.609,293.446,197.04,293.446"/>
</svg>
