<?xml version="1.0" encoding="utf-8"?>
<!-- Generator: Adobe Illustrator 16.0.0, SVG Export Plug-In . SVG Version: 6.00 Build 0)  -->
<!DOCTYPE svg PUBLIC "-//W3C//DTD SVG 1.1//EN" "http://www.w3.org/Graphics/SVG/1.1/DTD/svg11.dtd">
<svg version="1.1" id="Layer_1" xmlns="http://www.w3.org/2000/svg" xmlns:xlink="http://www.w3.org/1999/xlink" x="0px" y="0px"
	 width="609.45px" height="175px" viewBox="0 0 609.45 175" enable-background="new 0 0 609.45 175" xml:space="preserve">
<path fill="#24BDEF" d="M62.013,134.161c0,0-41.011-43,0.18-87.17c0,0,43.97-3.074,74.407,43.374c0,0,0-30.79-15.646-46.657
	c0,0,0.251-9.739,10.119-9.739c0,0,36.518,15.45,36.518,56.947c0,0,1.591,70.931-87.149,55.799c0,0,25.721,4.821,40.763-25.68
	c0,0-15.042-46.446-46.376-46.979c0,0-15.423,16.309,0.074,47.38C74.904,121.437,74.83,134.161,62.013,134.161"/>
<g>
	<path fill="#231F20" d="M266.016,48.12v89.869h55.256c0,0,5.989-5.991,0-11.981H278.66v-26.63h38.611V87.395H278.66V60.101h42.611
		c0,0,5.989-5.993,0-11.981H266.016z"/>
	<path fill="#231F20" d="M189.459,135.981V48.12h12.074l42.256,66.396V48.12h12.739v90.546h-12.739l-42.256-66.401v63.716
		C195.495,142.022,189.459,135.981,189.459,135.981"/>
	<path fill="#231F20" d="M376.305,106.913L376.305,106.913c0,0-1.984,19.584-18.396,19.584c-16.409,0-18.634-19.522-18.634-19.522
		l0.041-28.442c0,0,1.972-18.338,19.045-18.338c17.067,0,17.891,18.422,17.891,18.422l0.023,23.944l12.705-0.061l-0.062-24.008
		c0,0-0.746-30.626-31.084-30.371c-30.339,0.254-30.991,30.456-30.991,30.456l0.021,28.397c0,0,0.547,31.372,31.045,31.689
		c30.503,0.313,31.071-31.852,31.071-31.852L376.305,106.913z"/>
	<path fill="#231F20" d="M389.402,135.648c0,0,9.464,6.709,13.473,0c0.112-0.094,5.778-16.847,5.778-16.847l36.748-0.01
		c0,0,5.866,16.763,5.734,16.856c4.155,6.797,13.562,0,13.562,0L432.446,48.12h-10.718l-20.021,54.355h12.615l12.765-36.833
		l14.093,41.164l-41.211,0.155L389.402,135.648z"/>
	<path fill="#231F20" d="M446.224,48.12h14.149l19.832,40.908l19.827-40.908h14.157l-27.62,54.223l0.015,33.593
		c0,0-6.379,6.148-12.816,0l0.077-33.593L446.224,48.12z"/>
	<path fill="#231F20" d="M513.485,129.605c0,0-1.186-8.171,6.86-9.952c0,0,8.558,7.905,23.717,7.52c0,0,19.247,0.682,19.556-13.458
		c0.253-11.602-15.584-13.664-15.584-13.664s-14.769-2.152-20.194-4.82c0,0-7.529-2.895-9.993-8.658c0,0-6.091-12.021,0.466-25.51
		c0,0,5.721-12.865,26.042-12.911c0,0,15.822-1.103,29.628,9.27l-7.08,9.879c0,0-13.871-11.927-31.483-5.264
		c0,0-7.476,2.4-7.79,10.585c-0.295,7.789,4.843,10.242,4.843,10.242s4.348,3.223,22.469,6.27c0,0,15.71,2.285,19.429,14.308
		c0,0,5.122,13.276-3.433,24.853c0,0-6.981,10.696-27.755,10.354C543.182,138.646,527.173,139.493,513.485,129.605"/>
</g>
</svg>
